<mxfile host="app.diagrams.net" modified="2023-12-08T23:13:02.415Z" agent="Mozilla/5.0 (Windows NT 10.0; Win64; x64) AppleWebKit/537.36 (KHTML, like Gecko) Chrome/119.0.0.0 Safari/537.36" etag="H71xjWTRk4f4p2DPo3HD" version="22.1.7" type="device">
  <diagram name="Page-1" id="U4OLpJqXyadEXvYvzw3I">
    <mxGraphModel dx="1235" dy="721" grid="1" gridSize="10" guides="1" tooltips="1" connect="1" arrows="1" fold="1" page="1" pageScale="1" pageWidth="850" pageHeight="1100" math="0" shadow="0">
      <root>
        <mxCell id="0" />
        <mxCell id="1" parent="0" />
        <mxCell id="F8E1DBA8DGd1F4x6hNJG-1" value="Amplifier" style="rounded=0;whiteSpace=wrap;html=1;fillColor=#d5e8d4;strokeColor=none;shadow=1;" parent="1" vertex="1">
          <mxGeometry x="240" y="240" width="80" height="40" as="geometry" />
        </mxCell>
        <mxCell id="F8E1DBA8DGd1F4x6hNJG-2" value="ADC" style="rounded=0;whiteSpace=wrap;html=1;fillColor=#d5e8d4;strokeColor=none;shadow=1;" parent="1" vertex="1">
          <mxGeometry x="360" y="240" width="80" height="40" as="geometry" />
        </mxCell>
        <mxCell id="F8E1DBA8DGd1F4x6hNJG-3" value="Memory" style="rounded=0;whiteSpace=wrap;html=1;fillColor=#dae8fc;strokeColor=none;shadow=1;" parent="1" vertex="1">
          <mxGeometry x="480" y="160" width="80" height="40" as="geometry" />
        </mxCell>
        <mxCell id="F8E1DBA8DGd1F4x6hNJG-4" value="MCU" style="rounded=0;whiteSpace=wrap;html=1;fillColor=#dae8fc;strokeColor=none;shadow=1;" parent="1" vertex="1">
          <mxGeometry x="480" y="240" width="80" height="40" as="geometry" />
        </mxCell>
        <mxCell id="F8E1DBA8DGd1F4x6hNJG-5" value="Trigger" style="rounded=0;whiteSpace=wrap;html=1;fillColor=#dae8fc;strokeColor=none;shadow=1;" parent="1" vertex="1">
          <mxGeometry x="240" y="320" width="80" height="40" as="geometry" />
        </mxCell>
        <mxCell id="F8E1DBA8DGd1F4x6hNJG-7" value="Clock" style="rounded=0;whiteSpace=wrap;html=1;fillColor=#dae8fc;strokeColor=none;shadow=1;" parent="1" vertex="1">
          <mxGeometry x="360" y="400" width="80" height="40" as="geometry" />
        </mxCell>
        <mxCell id="F8E1DBA8DGd1F4x6hNJG-9" value="Sample logic" style="rounded=0;whiteSpace=wrap;html=1;fillColor=#dae8fc;strokeColor=none;shadow=1;" parent="1" vertex="1">
          <mxGeometry x="360" y="320" width="80" height="40" as="geometry" />
        </mxCell>
        <mxCell id="F8E1DBA8DGd1F4x6hNJG-10" value="Protection" style="rounded=0;whiteSpace=wrap;html=1;fillColor=#f8cecc;strokeColor=none;shadow=1;" parent="1" vertex="1">
          <mxGeometry y="320" width="80" height="40" as="geometry" />
        </mxCell>
        <mxCell id="F8E1DBA8DGd1F4x6hNJG-11" value="Attenuator" style="rounded=0;whiteSpace=wrap;html=1;fillColor=#d5e8d4;strokeColor=none;shadow=1;" parent="1" vertex="1">
          <mxGeometry x="120" y="240" width="80" height="40" as="geometry" />
        </mxCell>
        <mxCell id="0VOMocTe6zLsh0VOqf7s-1" value="&lt;font style=&quot;font-size: 18px;&quot;&gt;&lt;b&gt;Functional diagram&lt;/b&gt;&lt;/font&gt;&lt;br&gt;(hardware version evt A)" style="text;html=1;strokeColor=none;fillColor=none;align=center;verticalAlign=middle;whiteSpace=wrap;rounded=0;" parent="1" vertex="1">
          <mxGeometry x="230" y="70" width="220" height="60" as="geometry" />
        </mxCell>
        <mxCell id="0VOMocTe6zLsh0VOqf7s-2" value="Reference power supply" style="rounded=0;whiteSpace=wrap;html=1;fillColor=#f8cecc;strokeColor=none;shadow=1;" parent="1" vertex="1">
          <mxGeometry x="600" y="320" width="80" height="40" as="geometry" />
        </mxCell>
        <mxCell id="0VOMocTe6zLsh0VOqf7s-3" value="Low noise power supply" style="rounded=0;whiteSpace=wrap;html=1;fillColor=#ffe6cc;strokeColor=none;shadow=1;" parent="1" vertex="1">
          <mxGeometry x="300" y="560" width="80" height="40" as="geometry" />
        </mxCell>
        <mxCell id="0VOMocTe6zLsh0VOqf7s-4" value="Analog Input" style="rounded=0;whiteSpace=wrap;html=1;fillColor=#d5e8d4;strokeColor=none;shadow=1;" parent="1" vertex="1">
          <mxGeometry y="240" width="80" height="40" as="geometry" />
        </mxCell>
        <mxCell id="0VOMocTe6zLsh0VOqf7s-7" value="" style="endArrow=classic;html=1;rounded=0;exitX=1;exitY=0.5;exitDx=0;exitDy=0;entryX=0;entryY=0.5;entryDx=0;entryDy=0;fillColor=#d5e8d4;strokeColor=#82b366;" parent="1" source="0VOMocTe6zLsh0VOqf7s-4" target="F8E1DBA8DGd1F4x6hNJG-11" edge="1">
          <mxGeometry width="50" height="50" relative="1" as="geometry">
            <mxPoint x="250" y="340" as="sourcePoint" />
            <mxPoint x="300" y="290" as="targetPoint" />
          </mxGeometry>
        </mxCell>
        <mxCell id="EH5RnHmuUrUy_aoPJXcK-13" value="Analog&lt;br&gt;input" style="edgeLabel;html=1;align=center;verticalAlign=middle;resizable=0;points=[];labelBackgroundColor=none;" vertex="1" connectable="0" parent="0VOMocTe6zLsh0VOqf7s-7">
          <mxGeometry x="0.0619" y="1" relative="1" as="geometry">
            <mxPoint x="-1" y="-19" as="offset" />
          </mxGeometry>
        </mxCell>
        <mxCell id="0VOMocTe6zLsh0VOqf7s-8" value="" style="endArrow=classic;html=1;rounded=0;exitX=1;exitY=0.5;exitDx=0;exitDy=0;entryX=0;entryY=0.5;entryDx=0;entryDy=0;fillColor=#d5e8d4;strokeColor=#82b366;" parent="1" source="F8E1DBA8DGd1F4x6hNJG-11" target="F8E1DBA8DGd1F4x6hNJG-1" edge="1">
          <mxGeometry width="50" height="50" relative="1" as="geometry">
            <mxPoint x="90" y="270" as="sourcePoint" />
            <mxPoint x="130" y="270" as="targetPoint" />
          </mxGeometry>
        </mxCell>
        <mxCell id="EH5RnHmuUrUy_aoPJXcK-14" value="Raw&lt;br&gt;signal" style="edgeLabel;html=1;align=center;verticalAlign=middle;resizable=0;points=[];labelBackgroundColor=none;" vertex="1" connectable="0" parent="0VOMocTe6zLsh0VOqf7s-8">
          <mxGeometry x="0.0033" y="1" relative="1" as="geometry">
            <mxPoint y="-19" as="offset" />
          </mxGeometry>
        </mxCell>
        <mxCell id="0VOMocTe6zLsh0VOqf7s-9" value="" style="endArrow=classic;html=1;rounded=0;exitX=0.5;exitY=0;exitDx=0;exitDy=0;entryX=0.5;entryY=1;entryDx=0;entryDy=0;fillColor=#f8cecc;strokeColor=#b85450;" parent="1" source="F8E1DBA8DGd1F4x6hNJG-10" target="0VOMocTe6zLsh0VOqf7s-4" edge="1">
          <mxGeometry width="50" height="50" relative="1" as="geometry">
            <mxPoint x="210" y="270" as="sourcePoint" />
            <mxPoint x="210" y="300" as="targetPoint" />
          </mxGeometry>
        </mxCell>
        <mxCell id="0VOMocTe6zLsh0VOqf7s-10" value="" style="endArrow=classic;html=1;rounded=0;exitX=1;exitY=0.5;exitDx=0;exitDy=0;entryX=0;entryY=0.5;entryDx=0;entryDy=0;fillColor=#d5e8d4;strokeColor=#82b366;" parent="1" source="F8E1DBA8DGd1F4x6hNJG-1" target="F8E1DBA8DGd1F4x6hNJG-2" edge="1">
          <mxGeometry width="50" height="50" relative="1" as="geometry">
            <mxPoint x="360" y="340" as="sourcePoint" />
            <mxPoint x="410" y="290" as="targetPoint" />
          </mxGeometry>
        </mxCell>
        <mxCell id="EH5RnHmuUrUy_aoPJXcK-17" value="Signal" style="edgeLabel;html=1;align=center;verticalAlign=middle;resizable=0;points=[];labelBackgroundColor=none;" vertex="1" connectable="0" parent="0VOMocTe6zLsh0VOqf7s-10">
          <mxGeometry x="0.0033" y="1" relative="1" as="geometry">
            <mxPoint y="-9" as="offset" />
          </mxGeometry>
        </mxCell>
        <mxCell id="0VOMocTe6zLsh0VOqf7s-11" value="" style="edgeStyle=segmentEdgeStyle;endArrow=classic;html=1;curved=0;rounded=0;endSize=8;startSize=8;exitX=0.5;exitY=1;exitDx=0;exitDy=0;entryX=0.5;entryY=0;entryDx=0;entryDy=0;fillColor=#d5e8d4;strokeColor=#82b366;" parent="1" source="F8E1DBA8DGd1F4x6hNJG-1" target="F8E1DBA8DGd1F4x6hNJG-5" edge="1">
          <mxGeometry width="50" height="50" relative="1" as="geometry">
            <mxPoint x="360" y="340" as="sourcePoint" />
            <mxPoint x="410" y="290" as="targetPoint" />
          </mxGeometry>
        </mxCell>
        <mxCell id="EH5RnHmuUrUy_aoPJXcK-16" value="Signal" style="edgeLabel;html=1;align=center;verticalAlign=middle;resizable=0;points=[];labelBackgroundColor=none;" vertex="1" connectable="0" parent="0VOMocTe6zLsh0VOqf7s-11">
          <mxGeometry x="0.05" y="-1" relative="1" as="geometry">
            <mxPoint x="21" as="offset" />
          </mxGeometry>
        </mxCell>
        <mxCell id="0VOMocTe6zLsh0VOqf7s-13" value="" style="edgeStyle=segmentEdgeStyle;endArrow=classic;html=1;curved=0;rounded=0;endSize=8;startSize=8;exitX=1;exitY=0.5;exitDx=0;exitDy=0;entryX=0;entryY=0.5;entryDx=0;entryDy=0;fillColor=#dae8fc;strokeColor=#6c8ebf;" parent="1" source="F8E1DBA8DGd1F4x6hNJG-5" target="F8E1DBA8DGd1F4x6hNJG-9" edge="1">
          <mxGeometry width="50" height="50" relative="1" as="geometry">
            <mxPoint x="400" y="340" as="sourcePoint" />
            <mxPoint x="410" y="290" as="targetPoint" />
            <Array as="points">
              <mxPoint x="350" y="340" />
              <mxPoint x="350" y="340" />
            </Array>
          </mxGeometry>
        </mxCell>
        <mxCell id="EH5RnHmuUrUy_aoPJXcK-18" value="Trigger" style="edgeLabel;html=1;align=center;verticalAlign=middle;resizable=0;points=[];labelBackgroundColor=none;" vertex="1" connectable="0" parent="0VOMocTe6zLsh0VOqf7s-13">
          <mxGeometry x="-0.1667" y="1" relative="1" as="geometry">
            <mxPoint x="3" y="-9" as="offset" />
          </mxGeometry>
        </mxCell>
        <mxCell id="0VOMocTe6zLsh0VOqf7s-15" value="" style="edgeStyle=segmentEdgeStyle;endArrow=classic;html=1;curved=0;rounded=0;endSize=8;startSize=8;exitX=0;exitY=0.5;exitDx=0;exitDy=0;entryX=0.5;entryY=0;entryDx=0;entryDy=0;fillColor=#f8cecc;strokeColor=#b85450;" parent="1" source="EH5RnHmuUrUy_aoPJXcK-5" target="F8E1DBA8DGd1F4x6hNJG-2" edge="1">
          <mxGeometry width="50" height="50" relative="1" as="geometry">
            <mxPoint x="330" y="280" as="sourcePoint" />
            <mxPoint x="370" y="330" as="targetPoint" />
            <Array as="points">
              <mxPoint x="580" y="180" />
              <mxPoint x="580" y="140" />
              <mxPoint x="400" y="140" />
            </Array>
          </mxGeometry>
        </mxCell>
        <mxCell id="0VOMocTe6zLsh0VOqf7s-16" value="" style="edgeStyle=segmentEdgeStyle;endArrow=classic;html=1;curved=0;rounded=0;endSize=8;startSize=8;exitX=0.5;exitY=0;exitDx=0;exitDy=0;entryX=0.5;entryY=1;entryDx=0;entryDy=0;fillColor=#dae8fc;strokeColor=#6c8ebf;" parent="1" source="F8E1DBA8DGd1F4x6hNJG-7" target="F8E1DBA8DGd1F4x6hNJG-9" edge="1">
          <mxGeometry width="50" height="50" relative="1" as="geometry">
            <mxPoint x="410" y="350" as="sourcePoint" />
            <mxPoint x="570" y="380" as="targetPoint" />
            <Array as="points">
              <mxPoint x="400" y="380" />
              <mxPoint x="400" y="380" />
            </Array>
          </mxGeometry>
        </mxCell>
        <mxCell id="0VOMocTe6zLsh0VOqf7s-17" value="Reference power supply" style="rounded=0;whiteSpace=wrap;html=1;fillColor=#ffe6cc;strokeColor=none;shadow=1;" parent="1" vertex="1">
          <mxGeometry x="300" y="640" width="80" height="40" as="geometry" />
        </mxCell>
        <mxCell id="0VOMocTe6zLsh0VOqf7s-18" value="" style="edgeStyle=segmentEdgeStyle;endArrow=classic;html=1;curved=0;rounded=0;endSize=8;startSize=8;exitX=1;exitY=0.5;exitDx=0;exitDy=0;entryX=0.25;entryY=1;entryDx=0;entryDy=0;fillColor=#dae8fc;strokeColor=#6c8ebf;startArrow=classic;startFill=1;" parent="1" source="F8E1DBA8DGd1F4x6hNJG-9" target="F8E1DBA8DGd1F4x6hNJG-4" edge="1">
          <mxGeometry width="50" height="50" relative="1" as="geometry">
            <mxPoint x="490" y="310" as="sourcePoint" />
            <mxPoint x="540" y="260" as="targetPoint" />
          </mxGeometry>
        </mxCell>
        <mxCell id="EH5RnHmuUrUy_aoPJXcK-20" value="Control&lt;br&gt;trigger" style="edgeLabel;html=1;align=center;verticalAlign=middle;resizable=0;points=[];labelBackgroundColor=none;" vertex="1" connectable="0" parent="0VOMocTe6zLsh0VOqf7s-18">
          <mxGeometry x="-0.5478" relative="1" as="geometry">
            <mxPoint x="3" as="offset" />
          </mxGeometry>
        </mxCell>
        <mxCell id="0VOMocTe6zLsh0VOqf7s-19" value="" style="edgeStyle=segmentEdgeStyle;endArrow=classic;html=1;curved=0;rounded=0;endSize=8;startSize=8;exitX=1;exitY=0.5;exitDx=0;exitDy=0;entryX=0;entryY=0.5;entryDx=0;entryDy=0;startArrow=classic;startFill=1;fillColor=#d5e8d4;strokeColor=#82b366;" parent="1" source="F8E1DBA8DGd1F4x6hNJG-2" target="F8E1DBA8DGd1F4x6hNJG-4" edge="1">
          <mxGeometry width="50" height="50" relative="1" as="geometry">
            <mxPoint x="330" y="190" as="sourcePoint" />
            <mxPoint x="370" y="260" as="targetPoint" />
            <Array as="points">
              <mxPoint x="440" y="260" />
            </Array>
          </mxGeometry>
        </mxCell>
        <mxCell id="EH5RnHmuUrUy_aoPJXcK-15" value="Digital&lt;br&gt;signal" style="edgeLabel;html=1;align=center;verticalAlign=middle;resizable=0;points=[];labelBackgroundColor=none;" vertex="1" connectable="0" parent="0VOMocTe6zLsh0VOqf7s-19">
          <mxGeometry x="-0.3533" y="1" relative="1" as="geometry">
            <mxPoint x="7" y="-19" as="offset" />
          </mxGeometry>
        </mxCell>
        <mxCell id="0VOMocTe6zLsh0VOqf7s-20" value="" style="edgeStyle=segmentEdgeStyle;endArrow=classic;html=1;curved=0;rounded=0;endSize=8;startSize=8;exitX=0.5;exitY=0;exitDx=0;exitDy=0;entryX=0.5;entryY=1;entryDx=0;entryDy=0;startArrow=classic;startFill=1;fillColor=#dae8fc;strokeColor=#6c8ebf;" parent="1" source="F8E1DBA8DGd1F4x6hNJG-4" target="F8E1DBA8DGd1F4x6hNJG-3" edge="1">
          <mxGeometry width="50" height="50" relative="1" as="geometry">
            <mxPoint x="450" y="270" as="sourcePoint" />
            <mxPoint x="490" y="270" as="targetPoint" />
            <Array as="points" />
          </mxGeometry>
        </mxCell>
        <mxCell id="EH5RnHmuUrUy_aoPJXcK-25" value="QSPI" style="edgeLabel;html=1;align=center;verticalAlign=middle;resizable=0;points=[];labelBackgroundColor=none;" vertex="1" connectable="0" parent="0VOMocTe6zLsh0VOqf7s-20">
          <mxGeometry x="-0.2567" relative="1" as="geometry">
            <mxPoint x="20" y="-5" as="offset" />
          </mxGeometry>
        </mxCell>
        <mxCell id="0VOMocTe6zLsh0VOqf7s-23" value="USB type C" style="rounded=0;whiteSpace=wrap;html=1;fillColor=#f8cecc;strokeColor=none;shadow=1;" parent="1" vertex="1">
          <mxGeometry x="180" y="560" width="80" height="40" as="geometry" />
        </mxCell>
        <mxCell id="0VOMocTe6zLsh0VOqf7s-26" value="" style="edgeStyle=segmentEdgeStyle;endArrow=classic;html=1;curved=0;rounded=0;endSize=8;startSize=8;exitX=1;exitY=0.5;exitDx=0;exitDy=0;entryX=0;entryY=0.5;entryDx=0;entryDy=0;fillColor=#f8cecc;strokeColor=#b85450;" parent="1" source="0VOMocTe6zLsh0VOqf7s-23" target="0VOMocTe6zLsh0VOqf7s-3" edge="1">
          <mxGeometry width="50" height="50" relative="1" as="geometry">
            <mxPoint x="320" y="540" as="sourcePoint" />
            <mxPoint x="370" y="490" as="targetPoint" />
          </mxGeometry>
        </mxCell>
        <mxCell id="0VOMocTe6zLsh0VOqf7s-28" value="" style="edgeStyle=segmentEdgeStyle;endArrow=classic;html=1;curved=0;rounded=0;endSize=8;startSize=8;exitX=1;exitY=0.5;exitDx=0;exitDy=0;entryX=0;entryY=0.5;entryDx=0;entryDy=0;fillColor=#f8cecc;strokeColor=#b85450;" parent="1" source="0VOMocTe6zLsh0VOqf7s-23" target="0VOMocTe6zLsh0VOqf7s-17" edge="1">
          <mxGeometry width="50" height="50" relative="1" as="geometry">
            <mxPoint x="270" y="590" as="sourcePoint" />
            <mxPoint x="310" y="670" as="targetPoint" />
            <Array as="points">
              <mxPoint x="280" y="580" />
              <mxPoint x="280" y="660" />
            </Array>
          </mxGeometry>
        </mxCell>
        <mxCell id="0VOMocTe6zLsh0VOqf7s-43" value="+5V" style="edgeLabel;html=1;align=center;verticalAlign=middle;resizable=0;points=[];labelBackgroundColor=none;" parent="0VOMocTe6zLsh0VOqf7s-28" vertex="1" connectable="0">
          <mxGeometry x="-0.8763" y="-1" relative="1" as="geometry">
            <mxPoint x="12" y="-11" as="offset" />
          </mxGeometry>
        </mxCell>
        <mxCell id="0VOMocTe6zLsh0VOqf7s-41" value="" style="endArrow=classic;html=1;rounded=0;exitX=1;exitY=0.5;exitDx=0;exitDy=0;fillColor=#ffe6cc;strokeColor=#d79b00;" parent="1" source="0VOMocTe6zLsh0VOqf7s-3" edge="1">
          <mxGeometry width="50" height="50" relative="1" as="geometry">
            <mxPoint x="390" y="579.89" as="sourcePoint" />
            <mxPoint x="460" y="580" as="targetPoint" />
          </mxGeometry>
        </mxCell>
        <mxCell id="0VOMocTe6zLsh0VOqf7s-42" value="+3V3" style="edgeLabel;html=1;align=center;verticalAlign=middle;resizable=0;points=[];labelBackgroundColor=none;" parent="0VOMocTe6zLsh0VOqf7s-41" vertex="1" connectable="0">
          <mxGeometry x="0.2762" relative="1" as="geometry">
            <mxPoint x="-16" y="-5" as="offset" />
          </mxGeometry>
        </mxCell>
        <mxCell id="0VOMocTe6zLsh0VOqf7s-44" value="" style="endArrow=classic;html=1;rounded=0;exitX=1;exitY=0.5;exitDx=0;exitDy=0;fillColor=#ffe6cc;strokeColor=#d79b00;" parent="1" source="0VOMocTe6zLsh0VOqf7s-17" edge="1">
          <mxGeometry width="50" height="50" relative="1" as="geometry">
            <mxPoint x="380" y="659.81" as="sourcePoint" />
            <mxPoint x="460" y="659.81" as="targetPoint" />
          </mxGeometry>
        </mxCell>
        <mxCell id="0VOMocTe6zLsh0VOqf7s-45" value="+1V65" style="edgeLabel;html=1;align=center;verticalAlign=middle;resizable=0;points=[];labelBackgroundColor=none;" parent="0VOMocTe6zLsh0VOqf7s-44" vertex="1" connectable="0">
          <mxGeometry x="0.2762" relative="1" as="geometry">
            <mxPoint x="-16" y="-5" as="offset" />
          </mxGeometry>
        </mxCell>
        <mxCell id="0VOMocTe6zLsh0VOqf7s-47" value="&lt;font style=&quot;font-size: 18px;&quot;&gt;&lt;b&gt;Power delivery diagram&lt;/b&gt;&lt;/font&gt;&lt;br&gt;(hardware version evt A)" style="text;html=1;strokeColor=none;fillColor=none;align=center;verticalAlign=middle;whiteSpace=wrap;rounded=0;" parent="1" vertex="1">
          <mxGeometry x="220" y="490" width="220" height="60" as="geometry" />
        </mxCell>
        <mxCell id="0VOMocTe6zLsh0VOqf7s-105" value="User interface" style="rounded=0;whiteSpace=wrap;html=1;fillColor=#dae8fc;strokeColor=none;shadow=1;" parent="1" vertex="1">
          <mxGeometry x="720" y="240" width="80" height="40" as="geometry" />
        </mxCell>
        <mxCell id="0VOMocTe6zLsh0VOqf7s-106" value="" style="edgeStyle=segmentEdgeStyle;endArrow=classic;html=1;curved=0;rounded=0;endSize=8;startSize=8;exitX=1;exitY=0.5;exitDx=0;exitDy=0;entryX=0;entryY=0.5;entryDx=0;entryDy=0;startArrow=classic;startFill=1;dashed=1;fillColor=#dae8fc;strokeColor=#6c8ebf;" parent="1" source="EH5RnHmuUrUy_aoPJXcK-7" target="0VOMocTe6zLsh0VOqf7s-105" edge="1">
          <mxGeometry width="50" height="50" relative="1" as="geometry">
            <mxPoint x="570" y="270" as="sourcePoint" />
            <mxPoint x="610" y="270" as="targetPoint" />
            <Array as="points">
              <mxPoint x="710" y="260" />
              <mxPoint x="710" y="260" />
            </Array>
          </mxGeometry>
        </mxCell>
        <mxCell id="EH5RnHmuUrUy_aoPJXcK-2" value="" style="edgeStyle=segmentEdgeStyle;endArrow=classic;html=1;curved=0;rounded=0;endSize=8;startSize=8;exitX=0;exitY=0.5;exitDx=0;exitDy=0;entryX=0.5;entryY=1;entryDx=0;entryDy=0;fillColor=#f8cecc;strokeColor=#b85450;dashed=1;" edge="1" parent="1" source="0VOMocTe6zLsh0VOqf7s-2" target="F8E1DBA8DGd1F4x6hNJG-2">
          <mxGeometry width="50" height="50" relative="1" as="geometry">
            <mxPoint x="330" y="190" as="sourcePoint" />
            <mxPoint x="370" y="260" as="targetPoint" />
            <Array as="points">
              <mxPoint x="560" y="340" />
              <mxPoint x="560" y="300" />
              <mxPoint x="400" y="300" />
            </Array>
          </mxGeometry>
        </mxCell>
        <mxCell id="EH5RnHmuUrUy_aoPJXcK-3" value="" style="edgeStyle=segmentEdgeStyle;endArrow=classic;html=1;curved=0;rounded=0;endSize=8;startSize=8;exitX=0;exitY=0.5;exitDx=0;exitDy=0;entryX=1;entryY=0.5;entryDx=0;entryDy=0;fillColor=#f8cecc;strokeColor=#b85450;" edge="1" parent="1" source="EH5RnHmuUrUy_aoPJXcK-5" target="F8E1DBA8DGd1F4x6hNJG-3">
          <mxGeometry width="50" height="50" relative="1" as="geometry">
            <mxPoint x="330" y="190" as="sourcePoint" />
            <mxPoint x="490" y="260" as="targetPoint" />
            <Array as="points">
              <mxPoint x="600" y="180" />
            </Array>
          </mxGeometry>
        </mxCell>
        <mxCell id="EH5RnHmuUrUy_aoPJXcK-5" value="LDO, low noise, supply" style="rounded=0;whiteSpace=wrap;html=1;fillColor=#f8cecc;strokeColor=none;shadow=1;" vertex="1" parent="1">
          <mxGeometry x="600" y="160" width="80" height="40" as="geometry" />
        </mxCell>
        <mxCell id="EH5RnHmuUrUy_aoPJXcK-6" value="" style="edgeStyle=segmentEdgeStyle;endArrow=classic;html=1;curved=0;rounded=0;endSize=8;startSize=8;exitX=0;exitY=0.5;exitDx=0;exitDy=0;entryX=0.5;entryY=0;entryDx=0;entryDy=0;fillColor=#f8cecc;strokeColor=#b85450;" edge="1" parent="1" source="EH5RnHmuUrUy_aoPJXcK-5" target="F8E1DBA8DGd1F4x6hNJG-1">
          <mxGeometry width="50" height="50" relative="1" as="geometry">
            <mxPoint x="610" y="190" as="sourcePoint" />
            <mxPoint x="410" y="250" as="targetPoint" />
            <Array as="points">
              <mxPoint x="580" y="180" />
              <mxPoint x="580" y="140" />
              <mxPoint x="280" y="140" />
            </Array>
          </mxGeometry>
        </mxCell>
        <mxCell id="EH5RnHmuUrUy_aoPJXcK-21" value="+3V3" style="edgeLabel;html=1;align=center;verticalAlign=middle;resizable=0;points=[];labelBackgroundColor=none;" vertex="1" connectable="0" parent="EH5RnHmuUrUy_aoPJXcK-6">
          <mxGeometry x="-0.9577" relative="1" as="geometry">
            <mxPoint x="-10" y="10" as="offset" />
          </mxGeometry>
        </mxCell>
        <mxCell id="EH5RnHmuUrUy_aoPJXcK-8" value="" style="edgeStyle=segmentEdgeStyle;endArrow=classic;html=1;curved=0;rounded=0;endSize=8;startSize=8;exitX=1;exitY=0.5;exitDx=0;exitDy=0;entryX=0;entryY=0.5;entryDx=0;entryDy=0;startArrow=classic;startFill=1;fillColor=#dae8fc;strokeColor=#6c8ebf;" edge="1" parent="1" source="F8E1DBA8DGd1F4x6hNJG-4" target="EH5RnHmuUrUy_aoPJXcK-7">
          <mxGeometry width="50" height="50" relative="1" as="geometry">
            <mxPoint x="560" y="260" as="sourcePoint" />
            <mxPoint x="750" y="260" as="targetPoint" />
            <Array as="points" />
          </mxGeometry>
        </mxCell>
        <mxCell id="EH5RnHmuUrUy_aoPJXcK-24" value="USB" style="edgeLabel;html=1;align=center;verticalAlign=middle;resizable=0;points=[];labelBackgroundColor=none;" vertex="1" connectable="0" parent="EH5RnHmuUrUy_aoPJXcK-8">
          <mxGeometry x="-0.02" y="1" relative="1" as="geometry">
            <mxPoint y="-9" as="offset" />
          </mxGeometry>
        </mxCell>
        <mxCell id="EH5RnHmuUrUy_aoPJXcK-7" value="USB Type C" style="rounded=0;whiteSpace=wrap;html=1;fillColor=#e1d5e7;strokeColor=none;shadow=1;" vertex="1" parent="1">
          <mxGeometry x="600" y="240" width="80" height="40" as="geometry" />
        </mxCell>
        <mxCell id="EH5RnHmuUrUy_aoPJXcK-9" value="" style="edgeStyle=segmentEdgeStyle;endArrow=classic;html=1;curved=0;rounded=0;endSize=8;startSize=8;exitX=0.5;exitY=0;exitDx=0;exitDy=0;entryX=0.5;entryY=1;entryDx=0;entryDy=0;fillColor=#f8cecc;strokeColor=#b85450;" edge="1" parent="1" source="EH5RnHmuUrUy_aoPJXcK-7" target="EH5RnHmuUrUy_aoPJXcK-5">
          <mxGeometry width="50" height="50" relative="1" as="geometry">
            <mxPoint x="610" y="190" as="sourcePoint" />
            <mxPoint x="570" y="190" as="targetPoint" />
            <Array as="points">
              <mxPoint x="640" y="220" />
              <mxPoint x="640" y="220" />
            </Array>
          </mxGeometry>
        </mxCell>
        <mxCell id="EH5RnHmuUrUy_aoPJXcK-22" value="+5V" style="edgeLabel;html=1;align=center;verticalAlign=middle;resizable=0;points=[];labelBackgroundColor=none;" vertex="1" connectable="0" parent="EH5RnHmuUrUy_aoPJXcK-9">
          <mxGeometry x="-0.16" y="-1" relative="1" as="geometry">
            <mxPoint x="9" as="offset" />
          </mxGeometry>
        </mxCell>
        <mxCell id="EH5RnHmuUrUy_aoPJXcK-10" value="" style="edgeStyle=segmentEdgeStyle;endArrow=classic;html=1;curved=0;rounded=0;endSize=8;startSize=8;exitX=0.5;exitY=1;exitDx=0;exitDy=0;entryX=0.5;entryY=0;entryDx=0;entryDy=0;fillColor=#f8cecc;strokeColor=#b85450;" edge="1" parent="1" source="EH5RnHmuUrUy_aoPJXcK-7" target="0VOMocTe6zLsh0VOqf7s-2">
          <mxGeometry width="50" height="50" relative="1" as="geometry">
            <mxPoint x="650" y="250" as="sourcePoint" />
            <mxPoint x="650" y="210" as="targetPoint" />
            <Array as="points">
              <mxPoint x="640" y="300" />
              <mxPoint x="640" y="300" />
            </Array>
          </mxGeometry>
        </mxCell>
        <mxCell id="EH5RnHmuUrUy_aoPJXcK-23" value="+5V" style="edgeLabel;html=1;align=center;verticalAlign=middle;resizable=0;points=[];labelBackgroundColor=none;" vertex="1" connectable="0" parent="EH5RnHmuUrUy_aoPJXcK-10">
          <mxGeometry x="-0.2327" relative="1" as="geometry">
            <mxPoint x="10" as="offset" />
          </mxGeometry>
        </mxCell>
        <mxCell id="EH5RnHmuUrUy_aoPJXcK-11" value="" style="edgeStyle=segmentEdgeStyle;endArrow=classic;html=1;curved=0;rounded=0;endSize=8;startSize=8;exitX=1;exitY=0.5;exitDx=0;exitDy=0;entryX=0.75;entryY=1;entryDx=0;entryDy=0;fillColor=#dae8fc;strokeColor=#6c8ebf;" edge="1" parent="1" source="F8E1DBA8DGd1F4x6hNJG-7" target="F8E1DBA8DGd1F4x6hNJG-4">
          <mxGeometry width="50" height="50" relative="1" as="geometry">
            <mxPoint x="450" y="350" as="sourcePoint" />
            <mxPoint x="510" y="290" as="targetPoint" />
          </mxGeometry>
        </mxCell>
        <mxCell id="EH5RnHmuUrUy_aoPJXcK-19" value="Reference&lt;br&gt;clock" style="edgeLabel;html=1;align=center;verticalAlign=middle;resizable=0;points=[];labelBackgroundColor=none;" vertex="1" connectable="0" parent="EH5RnHmuUrUy_aoPJXcK-11">
          <mxGeometry x="-0.6694" y="1" relative="1" as="geometry">
            <mxPoint x="-10" y="1" as="offset" />
          </mxGeometry>
        </mxCell>
      </root>
    </mxGraphModel>
  </diagram>
</mxfile>
